<?xml version="1.0" encoding="utf-8"?>
<!-- Generator: Adobe Illustrator 16.0.0, SVG Export Plug-In . SVG Version: 6.00 Build 0)  -->
<!DOCTYPE svg PUBLIC "-//W3C//DTD SVG 1.1//EN" "http://www.w3.org/Graphics/SVG/1.1/DTD/svg11.dtd">
<svg version="1.1" xmlns="http://www.w3.org/2000/svg" xmlns:xlink="http://www.w3.org/1999/xlink" x="0px" y="0px" width="400px"
	 height="400px" viewBox="0 0 400 400" enable-background="new 0 0 400 400" xml:space="preserve">
<g id="Layer_1">
	<path fill="#FCFCFC" d="M314.316,221.228c-3.127-6.91-7.268-12.75-12.422-17.521c-5.157-4.771-11.023-8.72-17.604-11.847
		c-6.581-3.125-13.301-5.866-20.154-8.225c-6.856-2.357-13.572-4.579-20.153-6.664c-6.582-2.082-12.451-4.442-17.605-7.074
		c-5.157-2.631-9.295-5.812-12.42-9.543c-3.127-3.727-4.689-8.389-4.689-13.983c0-4.386,0.765-8.417,2.303-12.093
		c1.535-3.673,3.866-6.828,6.993-9.46c3.126-2.632,6.963-4.688,11.517-6.169c4.549-1.48,9.896-2.221,16.04-2.221
		c6.8,0,12.693,0.85,17.686,2.55c4.99,1.701,9.351,3.594,13.079,5.676c3.729,2.085,6.966,3.977,9.707,5.676
		c2.741,1.701,5.208,2.55,7.406,2.55c2.19,0,4.084-0.495,5.675-1.481c1.587-0.987,2.986-2.686,4.195-5.1l10.856-20.894
		c-8.335-7.897-18.425-14.039-30.271-18.427c-11.847-4.385-24.789-6.581-38.827-6.581c-12.396,0-23.419,1.92-33.068,5.758
		c-9.364,3.726-17.297,8.647-23.82,14.744c-0.462-0.399-0.908-0.808-1.387-1.197c-7.562-6.159-17.253-10.948-29.068-14.366
		c-11.819-3.416-26.018-5.125-42.594-5.125H86.996v34.949h28.694c16.689,0,29.094,3.305,37.218,9.913
		c8.12,6.611,12.182,16.075,12.182,28.396c0,6.161-1.009,11.819-3.024,16.97c-2.018,5.153-5.069,9.606-9.157,13.358
		c-4.091,3.754-9.299,6.695-15.627,8.821c-6.33,2.129-13.751,3.192-22.263,3.192H86.996v32.428h19.117
		c4.479,0,7.868,0.617,10.166,1.849c2.294,1.233,4.395,3.305,6.3,6.217l51.079,77.796c1.904,2.913,4.228,5.152,6.975,6.72
		c2.742,1.57,6.074,2.353,9.997,2.353l36.97,0.534c3.098,0.254,5.679-0.146,8.814-0.146c13.162,0,24.844-2.004,35.044-6.005
		c10.2-4.002,18.838-9.486,25.912-16.452c7.074-6.965,12.447-15.138,16.124-24.514c3.672-9.379,5.51-19.439,5.51-30.191
		C319.004,236.528,317.442,228.137,314.316,221.228z M267.017,278.397c-6.911,5.981-16.675,8.968-29.286,8.968
		c-8.227,0-15.275-1.124-21.141-3.373c-5.868-2.247-10.748-4.449-12.344-5.396s-2.68-1.448-5.84-3.933s-27.941-41.215-27.941-41.215
		c-4.145-6.05-9.072-10.696-14.784-13.946c8.51-2.688,16.101-6.272,22.767-10.754c4.349-2.923,8.236-6.163,11.68-9.707
		c3.807,2.94,7.935,5.463,12.396,7.544c6.581,3.073,13.27,5.704,20.072,7.897c6.8,2.195,13.491,4.226,20.072,6.088
		c6.579,1.865,12.447,4.142,17.604,6.827c5.153,2.689,9.294,6.005,12.423,9.953c3.124,3.948,4.688,9.048,4.688,15.302
		C277.381,263.838,273.926,272.421,267.017,278.397z"/>
</g>
<g id="Layer_3" display="none">
	<path display="inline" fill="#FFFFFF" d="M151.294,293v-47.315h19.323c4.479,0,7.868,0.617,10.166,1.849
		c2.294,1.233,4.395,3.305,6.3,6.217l51.079,77.796c1.904,2.913,4.228,5.152,6.975,6.72c2.742,1.57,6.074,2.353,9.997,2.353
		l36.97,0.534c3.098,0.254,5.679-0.146,8.814-0.146c13.162,0,24.844-2.004,35.044-6.005c10.2-4.002,18.838-9.486,25.912-16.452
		c7.074-6.965,12.447-15.138,16.124-24.514c3.672-9.379,5.51-19.439,5.51-30.191c0-9.87-1.562-18.262-4.688-25.171
		c-3.127-6.91-7.268-12.75-12.422-17.521c-5.157-4.771-11.023-8.72-17.604-11.847c-6.581-3.125-13.301-5.866-20.154-8.226
		c-6.856-2.357-13.572-4.578-20.153-6.663c-6.582-2.082-12.451-4.442-17.605-7.074c-5.157-2.631-9.295-5.812-12.42-9.543
		c-3.127-3.727-4.689-8.389-4.689-13.983c0-4.386,0.765-8.417,2.303-12.093c1.535-3.673,3.866-6.828,6.993-9.46
		c3.126-2.632,6.963-4.688,11.517-6.169c4.549-1.48,9.896-2.221,16.04-2.221c6.8,0,12.693,0.85,17.686,2.55
		c4.99,1.701,9.351,3.594,13.079,5.676c3.729,2.085,6.966,3.977,9.707,5.676c2.741,1.701,5.208,2.55,7.406,2.55
		c2.19,0,4.084-0.495,5.675-1.481c1.587-0.987,2.986-2.686,4.195-5.1l10.856-20.894c-8.335-7.897-18.425-14.039-30.271-18.427
		c-11.847-4.385-24.789-6.581-38.827-6.581c-12.396,0-23.419,1.92-33.068,5.758c-9.364,3.726-17.297,8.647-23.82,14.744
		c-0.462-0.399-0.908-0.808-1.387-1.197c-7.562-6.159-17.253-10.948-29.068-14.366c-11.819-3.416-26.018-5.125-42.594-5.125h-74.098
		V294 M106.096,294v46.618h45.198V293 M217.412,201.243c-4.091,3.754-9.299,6.694-15.627,8.821
		c-6.33,2.129-13.751,3.192-22.263,3.192h-28.228v-80.651h28.9c16.689,0,29.095,3.305,37.218,9.913
		c8.12,6.611,12.182,16.075,12.182,28.396c0,6.161-1.009,11.819-3.024,16.97C224.552,193.039,221.5,197.491,217.412,201.243z
		 M331.521,295.844c-6.911,5.981-16.675,8.968-29.286,8.968c-8.227,0-15.275-1.124-21.141-3.373
		c-5.868-2.247-10.748-4.449-12.344-5.396s-2.68-1.448-5.84-3.933s-27.941-41.215-27.941-41.215
		c-4.145-6.05-9.072-10.696-14.784-13.946c8.51-2.688,16.101-6.272,22.767-10.754c4.349-2.923,8.236-6.163,11.68-9.707
		c3.807,2.94,7.935,5.463,12.396,7.544c6.581,3.073,13.27,5.704,20.072,7.897c6.8,2.195,13.491,4.226,20.072,6.088
		c6.579,1.865,12.447,4.142,17.604,6.827c5.153,2.689,9.294,6.005,12.423,9.953c3.124,3.948,4.688,9.048,4.688,15.302
		C341.885,281.284,338.43,289.867,331.521,295.844z"/>
</g>
<g id="Layer_2" display="none">
	<path display="inline" fill="#FFFFFF" d="M262.873,114.745c-1.209,2.414-2.608,4.113-4.195,5.1
		c-1.591,0.987-3.484,1.481-5.675,1.481c-2.198,0-4.665-0.849-7.406-2.55c-2.741-1.7-5.979-3.591-9.707-5.676
		c-3.729-2.082-8.089-3.975-13.079-5.676c-4.992-1.7-10.886-2.55-17.686-2.55c-6.145,0-11.491,0.741-16.04,2.221
		c-4.554,1.481-8.391,3.537-11.517,6.169c-3.127,2.632-5.458,5.787-6.993,9.46c-1.538,3.676-2.303,7.707-2.303,12.093
		c0,5.594,1.562,10.256,4.689,13.983c3.125,3.73,7.263,6.912,12.42,9.543c5.154,2.632,11.023,4.993,17.605,7.074
		c6.581,2.085,13.297,4.306,20.153,6.664c6.854,2.359,13.573,5.1,20.154,8.225c6.58,3.127,12.446,7.075,17.604,11.847
		c5.154,4.771,9.295,10.611,12.422,17.521c3.126,6.909,4.688,15.301,4.688,25.171c0,10.752-1.838,20.812-5.51,30.191
		c-3.677,9.376-9.05,17.549-16.124,24.514c-7.074,6.966-15.712,12.45-25.912,16.452c-10.2,4.001-21.882,6.005-35.044,6.005
		c-7.568,0-15.027-0.74-22.374-2.222c-7.351-1.48-14.396-3.592-21.142-6.333s-13.053-6.031-18.92-9.872
		c-5.868-3.838-9.647-10.526-14.255-15.245l11.375-18.811c1.205-1.534,2.659-2.822,4.361-3.867c1.698-1.042,3.591-1.562,5.675-1.562
		c2.74,0,5.703,1.126,8.884,3.372c3.181,2.25,6.936,4.747,11.27,7.485c4.332,2.744,9.434,5.239,15.302,7.486
		c5.865,2.249,12.914,3.373,21.141,3.373c12.611,0,22.375-2.986,29.286-8.968c6.909-5.977,10.364-14.56,10.364-25.745
		c0-6.254-1.563-11.354-4.688-15.302c-3.129-3.948-7.27-7.264-12.423-9.953c-5.156-2.686-11.024-4.962-17.604-6.827
		c-6.581-1.862-13.272-3.893-20.072-6.088c-6.803-2.193-13.491-4.824-20.072-7.897c-6.579-3.069-12.449-7.074-17.603-12.011
		c-5.157-4.936-9.296-11.104-12.423-18.508c-3.126-7.403-4.688-16.534-4.688-27.393c0-8.663,1.728-17.111,5.182-25.336
		c3.455-8.227,8.499-15.52,15.137-21.882c6.635-6.36,14.779-11.46,24.433-15.3c9.649-3.838,20.672-5.758,33.068-5.758
		c14.038,0,26.98,2.195,38.827,6.581c11.846,4.389,21.936,10.53,30.271,18.427L262.873,114.745z"/>
	<path display="inline" fill="#FFFFFF" d="M45.794,216.685v94.934H0.596V68.657h74.098c16.576,0,30.774,1.709,42.594,5.125
		c11.815,3.418,21.507,8.207,29.068,14.366c7.561,6.162,13.105,13.526,16.634,22.095c3.527,8.57,5.293,18.008,5.293,28.312
		c0,8.178-1.204,15.907-3.613,23.187c-2.41,7.283-5.881,13.891-10.416,19.827c-4.537,5.938-10.14,11.146-16.803,15.626
		c-6.666,4.481-14.257,8.066-22.767,10.754c5.712,3.25,10.64,7.896,14.784,13.946l60.826,89.724h-40.661
		c-3.923,0-7.255-0.782-9.997-2.353c-2.747-1.567-5.07-3.807-6.975-6.72L81.583,224.75c-1.906-2.912-4.006-4.983-6.3-6.217
		c-2.297-1.231-5.687-1.849-10.166-1.849H45.794z M45.794,184.257h28.228c8.511,0,15.933-1.063,22.263-3.192
		c6.328-2.126,11.536-5.067,15.627-8.821c4.088-3.752,7.14-8.205,9.157-13.358c2.016-5.151,3.024-10.809,3.024-16.97
		c0-12.321-4.062-21.785-12.182-28.396c-8.124-6.608-20.529-9.913-37.218-9.913h-28.9V184.257z"/>
</g>
</svg>
